<svg width="38" height="31" viewBox="0 0 38 31" fill="none" xmlns="http://www.w3.org/2000/svg">
<path d="M37.4615 4.42263C36.0885 5.02494 34.6254 5.42417 33.1 5.61802C34.6692 4.68109 35.8669 3.20879 36.43 1.43417C34.9669 2.30648 33.3515 2.92263 31.63 3.26648C30.2408 1.78725 28.2608 0.871094 26.1008 0.871094C21.91 0.871094 18.5361 4.27263 18.5361 8.44263C18.5361 9.04263 18.5869 9.61955 18.7115 10.1688C12.4185 9.86186 6.84999 6.84571 3.10922 2.25109C2.45614 3.38417 2.07307 4.68109 2.07307 6.07725C2.07307 8.69879 3.42307 11.0226 5.43538 12.368C4.21922 12.3449 3.02614 11.9919 2.01538 11.4357C2.01538 11.4588 2.01538 11.4888 2.01538 11.5188C2.01538 15.1972 4.63922 18.2526 8.07999 18.9565C7.46384 19.1249 6.7923 19.2057 6.09538 19.2057C5.61076 19.2057 5.12153 19.178 4.6623 19.0765C5.64307 22.0742 8.42614 24.278 11.7354 24.3496C9.15999 26.3642 5.88999 27.578 2.34999 27.578C1.72922 27.578 1.13384 27.5503 0.538452 27.4742C3.89153 29.6365 7.86538 30.8711 12.1508 30.8711C26.08 30.8711 33.6954 19.3326 33.6954 9.33109C33.6954 8.99648 33.6838 8.6734 33.6677 8.35263C35.17 7.28648 36.4323 5.95494 37.4615 4.42263Z" fill="#F5E9F1"/>
</svg>
