<svg width="34" height="34" viewBox="0 0 34 34" fill="none" xmlns="http://www.w3.org/2000/svg">
<path d="M7.86087 24.1337L5.67133 32.8181C5.62606 33.0553 5.5355 33.1129 5.26059 33.1129H1.2017C0.93003 33.1129 0.884752 33.018 0.930031 32.6826L8.77614 3.88134C8.91198 3.35614 9.00577 2.90209 9.05105 1.46881C9.05105 1.27906 9.1416 1.1808 9.28067 1.1808H15.0731C15.2542 1.1808 15.348 1.22823 15.3933 1.46881L24.1967 32.73C24.242 32.9672 24.1967 33.1129 23.9671 33.1129H19.4069C19.1805 33.1129 19.0414 33.0553 18.9961 32.8656L16.716 24.1337H7.86087ZM15.5679 19.4272L12.2852 5.8161L9.04781 19.4272H15.5679ZM28.0033 3.33242C28.0033 1.46881 29.2355 0.370972 30.83 0.370972C32.5182 0.370972 33.6567 1.56707 33.6567 3.33242C33.6567 5.24346 32.4697 6.29386 30.7847 6.29386C29.1418 6.29386 28.0033 5.24346 28.0033 3.33242ZM28.3138 9.91605C28.3138 9.67547 28.4044 9.58059 28.634 9.58059H32.971C33.2006 9.58059 33.2912 9.67547 33.2912 9.91605V32.7775C33.2912 33.018 33.2459 33.1129 32.971 33.1129H28.6793C28.4044 33.1129 28.3138 32.9706 28.3138 32.73V9.91605Z" fill="#FB7C33"/>
</svg>
