<svg width="31" height="31" viewBox="0 0 31 31" fill="none" xmlns="http://www.w3.org/2000/svg">
<path d="M22.2594 0.871094H8.81719C4.2523 0.871094 0.538452 4.58512 0.538452 9.15001V22.5922C0.538452 27.1573 4.2523 30.8711 8.81719 30.8711H22.2594C26.8246 30.8711 30.5385 27.1571 30.5385 22.5922V9.15001C30.5386 4.58512 26.8246 0.871094 22.2594 0.871094ZM27.8769 22.5922C27.8769 25.6896 25.3569 28.2093 22.2595 28.2093H8.81719C5.71998 28.2095 3.2002 25.6896 3.2002 22.5922V9.15001C3.2002 6.0528 5.71998 3.53284 8.81719 3.53284H22.2594C25.3567 3.53284 27.8767 6.0528 27.8767 9.15001V22.5922H27.8769Z" fill="#F5E9F1"/>
<path d="M15.5384 8.14124C11.2759 8.14124 7.80817 11.609 7.80817 15.8715C7.80817 20.1338 11.2759 23.6014 15.5384 23.6014C19.8009 23.6014 23.2686 20.1338 23.2686 15.8715C23.2686 11.609 19.8009 8.14124 15.5384 8.14124ZM15.5384 20.9394C12.7438 20.9394 10.4699 18.666 10.4699 15.8713C10.4699 13.0765 12.7436 10.8028 15.5384 10.8028C18.3332 10.8028 20.6069 13.0765 20.6069 15.8713C20.6069 18.666 18.3331 20.9394 15.5384 20.9394Z" fill="#F5E9F1"/>
<path d="M23.5929 5.88428C23.08 5.88428 22.5763 6.09189 22.2141 6.45567C21.8501 6.81766 21.6409 7.32162 21.6409 7.83622C21.6409 8.34923 21.8503 8.85301 22.2141 9.21678C22.5761 9.57878 23.08 9.78817 23.5929 9.78817C24.1075 9.78817 24.6097 9.57878 24.9734 9.21678C25.3372 8.85301 25.5448 8.34905 25.5448 7.83622C25.5448 7.32162 25.3372 6.81766 24.9734 6.45567C24.6114 6.09189 24.1075 5.88428 23.5929 5.88428Z" fill="#F5E9F1"/>
</svg>
