<svg width="31" height="31" viewBox="0 0 31 31" fill="none" xmlns="http://www.w3.org/2000/svg">
<path d="M26.067 0.871094H4.85608C2.43314 0.871094 0.461548 2.84268 0.461548 5.26562V26.4766C0.461548 28.8995 2.43314 30.8711 4.85608 30.8711H26.067C28.49 30.8711 30.4615 28.8995 30.4615 26.4766V5.26562C30.4615 2.84268 28.49 0.871094 26.067 0.871094ZM11.067 24.6602H7.55139V12.3555H11.067V24.6602ZM11.067 10.5977H7.55139V7.08203H11.067V10.5977ZM23.3717 24.6602H19.8561V17.6289C19.8561 16.6598 19.0674 15.8711 18.0983 15.8711C17.1292 15.8711 16.3405 16.6598 16.3405 17.6289V24.6602H12.8248V12.3555H16.3405V13.0181C17.2615 12.7318 17.8598 12.3555 18.9772 12.3555C21.3614 12.358 23.3717 14.4969 23.3717 17.0247V24.6602Z" fill="#F5E9F1"/>
</svg>
