<svg width="34" height="30" viewBox="0 0 34 30" fill="none" xmlns="http://www.w3.org/2000/svg">
<path d="M0.630005 0.84447C0.630005 0.674401 0.997086 0.543813 1.20945 0.543813C2.878 0.458779 5.32622 0.41626 7.89579 0.41626C15.0827 0.41626 17.8828 4.35822 17.8828 9.40865C17.8828 16.0049 13.1047 18.8323 7.24354 18.8323C6.26061 18.8323 5.9178 18.7898 5.23217 18.7898V28.7631C5.23217 28.9787 5.14723 29.0638 4.93183 29.0638H0.930346C0.714951 29.0638 0.630005 28.9787 0.630005 28.7631V0.84447ZM5.23217 14.6352C5.82982 14.6778 6.30308 14.6778 7.32848 14.6778C10.3652 14.6778 13.22 13.6057 13.22 9.49672C13.22 6.1986 11.1813 4.52828 7.71376 4.52828C6.68836 4.52828 5.7024 4.5708 5.23217 4.61332V14.6352ZM27.5513 11.5497C25.4975 11.5497 24.8119 12.5792 24.8119 13.4356C24.8119 14.3771 25.2821 15.0209 28.0215 16.4331C32.0867 18.4041 33.37 20.287 33.37 23.0719C33.37 27.2264 30.2028 29.0638 25.9252 29.0638C23.659 29.0638 21.7266 28.6051 20.6162 27.9612C20.4463 27.8762 20.4008 27.7486 20.4008 27.533V24.0984C20.4008 23.8402 20.5282 23.7552 20.7012 23.8827C22.3272 24.9548 24.2142 25.4255 25.9252 25.4255C27.9791 25.4255 28.8346 24.5691 28.8346 23.412C28.8346 22.4706 28.2369 21.6566 25.6249 20.287C21.945 18.5316 20.4039 16.7307 20.4039 13.7333C20.4039 10.3926 23.0129 7.87423 27.5483 7.87423C29.772 7.87423 31.3435 7.95092 32.199 8.33661C32.4144 8.46416 32.4569 8.67979 32.4569 8.84985V12.4061C32.4569 12.6187 32.3294 12.7493 32.0716 12.6643C31.2465 12.1743 29.6052 11.5497 27.5513 11.5497Z" fill="#32CAFA"/>
</svg>
