<svg width="61" height="60" viewBox="0 0 61 60" fill="none" xmlns="http://www.w3.org/2000/svg">
<g clip-path="url(#clip0_2217_510)">
<path d="M19.5936 37.1775C20.1861 37.545 29.1386 39.365 31.3261 39.7275C32.0836 39.8875 31.5461 40.6675 30.5011 41.195C28.1436 41.8225 16.7086 37.1775 19.5936 37.1775ZM33.7111 4.01747L42.4736 12.9175C43.3061 13.7675 43.2936 15.4125 42.8286 15.885L38.4786 12.405L37.6236 17.5575L33.9861 15.64L28.1661 19.315L26.2386 11.565L23.1111 16.975H18.3286C16.3786 16.975 16.1511 14.5 17.9211 12.73C21.0136 9.39247 24.5636 5.98997 26.4936 4.01747C28.4336 2.03497 31.8111 2.09247 33.7111 4.01747ZM24.8936 2.42497L2.74364 25.09C-4.73886 34.3575 7.83864 33.28 13.2286 35.9475C15.1636 37.925 5.81614 39.385 7.75114 41.3625C9.68364 43.34 19.4461 45.1725 21.3836 47.1475C23.3161 49.125 17.4236 51.2225 19.3586 53.1975C21.2911 55.1775 25.7661 53.3025 26.6036 57.8675C27.1986 61.1275 34.6636 59.2675 38.3136 56.5975C40.2486 54.62 34.6136 54.805 36.5486 52.8275C41.3561 47.91 45.8361 51.0425 47.4811 46.1125C48.2936 43.6775 40.4011 42.36 42.3386 40.3825C47.9036 37.1325 67.1361 35.0175 58.0086 25.8925L35.0536 2.42497C32.2461 -0.270028 27.5561 -0.300028 24.8936 2.42497ZM50.3361 46.1125C50.3361 47.2375 58.6211 47.975 58.6211 45.8475C57.4411 42.4325 51.3161 42.6625 50.3361 46.1125ZM13.0161 52.0875C14.9761 53.785 18.0086 51.665 18.9161 49.2975C17.0161 46.7725 9.89864 49.39 13.0161 52.0875ZM49.2961 48.4225C46.7686 50.6925 49.5811 52.9925 52.0736 51.5275C52.6286 50.965 52.0561 48.9875 49.2961 48.4225Z" fill="black"/>
</g>
<defs>
<clipPath id="clip0_2217_510">
<rect width="60" height="60" fill="white" transform="translate(0.428589)"/>
</clipPath>
</defs>
</svg>
