<svg width="37" height="30" viewBox="0 0 37 30" fill="none" xmlns="http://www.w3.org/2000/svg">
<path d="M19.7432 28.668L12.7729 14.7343L19.4298 0.785416C19.5552 0.574469 19.48 0.41626 19.2793 0.41626H15.241C14.9992 0.41626 14.8961 0.579685 14.7895 0.759048L10.1743 11.3064L5.43366 0.732679C5.33333 0.495364 5.233 0.442628 4.98217 0.442628H0.667938C0.517442 0.442628 0.366946 0.600838 0.517442 0.811785L7.16437 14.7343L0.228829 28.6944C0.103416 28.8526 0.128499 29.0636 0.379326 29.0636H4.51798C4.71864 29.0636 4.84406 28.9845 4.96947 28.7735L9.84822 17.8457L14.7016 28.7472C14.827 29.0108 14.9524 29.0636 15.2283 29.0636H19.5927C19.7934 29.0636 19.8686 28.879 19.7432 28.668Z" fill="#FF26BE"/>
<path fill-rule="evenodd" clip-rule="evenodd" d="M31.0932 7.64055C24.9229 7.64055 21.0351 12.4396 21.0351 18.5834C21.0351 25.7556 24.8743 29.09 30.3172 29.0636C32.4242 29.0636 34.6801 28.788 36.787 27.7332C36.9375 27.6541 36.9877 27.6014 36.9877 27.4432C36.8623 26.4675 36.8623 25.571 36.8623 24.8591V0.652934C36.8623 0.521092 36.8121 0.441988 36.6114 0.441988H32.6484C32.523 0.441988 32.3975 0.547461 32.3975 0.705671V7.69328C31.8959 7.64055 31.62 7.64055 31.0932 7.64055ZM30.9427 11.5694C31.5447 11.5694 32.0464 11.6749 32.3975 11.8331V24.8854C31.921 25.0964 31.2688 25.1755 30.6668 25.1755C27.8325 25.1755 25.575 23.2242 25.575 18.3725C25.575 14.1272 27.7823 11.5694 30.9427 11.5694Z" fill="#FF26BE"/>
</svg>
